<?xml version="1.0" encoding="UTF-8"?>
<svg id="Camada_2" data-name="Camada 2" xmlns="http://www.w3.org/2000/svg" xmlns:xlink="http://www.w3.org/1999/xlink" viewBox="0 0 288.94 328.99">
  <defs>
    <style>
      .cls-1 {
        fill: #fff;
      }

      .cls-2 {
        fill: #0076e2;
        font-family: GOBOLD;
        font-size: 41px;
      }

      .cls-3 {
        fill: url(#Gradiente_sem_nome_8);
      }
    </style>
    <linearGradient id="Gradiente_sem_nome_8" data-name="Gradiente sem nome 8" x1="292.83" y1="270.17" x2="35.85" y2="121.8" gradientUnits="userSpaceOnUse">
      <stop offset="0" stop-color="#0076e2"/>
      <stop offset="1" stop-color="#004095"/>
    </linearGradient>
  </defs>
  <g id="Camada_1-2" data-name="Camada 1">
    <g>
      <path class="cls-3" d="m144.47,59.11h0c69.26,0,125.41,56.15,125.41,125.41v125.41h-125.41c-69.26,0-125.41-56.15-125.41-125.41h0c0-69.26,56.15-125.41,125.41-125.41h0Z"/>
      <g>
        <text class="cls-2" transform="translate(80.42 54.51) rotate(-21.86)"><tspan x="0" y="0">a</tspan></text>
        <text class="cls-2" transform="translate(99.63 46.44) rotate(-11.86)"><tspan x="0" y="0">m</tspan></text>
        <text class="cls-2" transform="translate(128.5 40.81) rotate(-2.03)"><tspan x="0" y="0">s</tspan></text>
        <text class="cls-2" transform="translate(149.32 40.33) rotate(3.92)"><tspan x="0" y="0"> </tspan></text>
        <text class="cls-2" transform="translate(158.65 40.62) rotate(9.88)"><tspan x="0" y="0">s</tspan></text>
        <text class="cls-2" transform="translate(178.99 43.75) rotate(18.15)"><tspan x="0" y="0">a</tspan></text>
        <text class="cls-2" transform="translate(199.02 50.28) rotate(26.32)"><tspan x="0" y="0">p</tspan></text>
      </g>
      <g>
        <rect class="cls-1" x="182.3" y="144.13" width="8.27" height="8.27"/>
        <rect class="cls-1" x="165.76" y="144.13" width="8.27" height="8.27"/>
        <rect class="cls-1" x="116.14" y="144.13" width="41.35" height="8.27"/>
        <rect class="cls-1" x="182.3" y="193.75" width="8.27" height="8.27"/>
        <rect class="cls-1" x="165.76" y="193.75" width="8.27" height="8.27"/>
        <rect class="cls-1" x="116.14" y="193.75" width="41.35" height="8.27"/>
        <path class="cls-1" d="m211.52,226.83c-5.39,0-9.99,3.46-11.69,8.27h-25.8v-8.27h-16.54v-8.27h49.62v-41.35h-8.27v-8.27h8.27v-41.35h-107.51v41.35h8.27v8.27h-8.27v41.35h49.62v8.27h-16.54v8.27h-25.8c-1.71-4.81-6.3-8.27-11.69-8.27-6.84,0-12.41,5.57-12.41,12.41s5.57,12.41,12.41,12.41c5.39,0,9.99-3.46,11.69-8.27h25.8v8.27h41.35v-8.27h25.8c1.71,4.81,6.3,8.27,11.69,8.27,6.84,0,12.41-5.57,12.41-12.41s-5.57-12.41-12.41-12.41h0Zm-103.65-90.97h90.97v24.81h-90.97v-24.81Zm8.27,33.08h74.43v8.27h-74.43v-8.27Zm-8.27,16.54h90.97v24.81h-90.97v-24.81Zm-12.68,57.89c-2.28,0-4.14-1.86-4.14-4.14s1.86-4.14,4.14-4.14,4.14,1.86,4.14,4.14-1.86,4.14-4.14,4.14h0Zm70.57,0h-24.81v-8.27h24.81v8.27Zm45.76,0c-2.28,0-4.14-1.86-4.14-4.14s1.86-4.14,4.14-4.14,4.14,1.86,4.14,4.14-1.86,4.14-4.14,4.14h0Z"/>
      </g>
    </g>
  </g>
</svg>