<?xml version="1.0" encoding="UTF-8"?>
<svg id="Camada_2" data-name="Camada 2" xmlns="http://www.w3.org/2000/svg" xmlns:xlink="http://www.w3.org/1999/xlink" viewBox="0 0 333.59 328.99">
  <defs>
    <style>
      .cls-1 {
        fill: none;
        stroke: #fff;
        stroke-linecap: round;
        stroke-linejoin: round;
        stroke-width: 6px;
      }

      .cls-2 {
        fill: #0076e2;
        font-family: Oswald, sans-serif;
        font-size: 41px;
      }

      .cls-3 {
        fill: url(#Gradiente_sem_nome_8);
      }
    </style>
    <linearGradient id="Gradiente_sem_nome_8" data-name="Gradiente sem nome 8" x1="292.83" y1="270.17" x2="35.85" y2="121.8" gradientUnits="userSpaceOnUse">
      <stop offset="0" stop-color="#0076e2"/>
      <stop offset="1" stop-color="#004095"/>
    </linearGradient>
  </defs>
  <g id="Camada_1-2" data-name="Camada 1">
    <g>
      <path class="cls-3" d="m144.47,59.11h0c69.26,0,125.41,56.15,125.41,125.41v125.41h-125.41c-69.26,0-125.41-56.15-125.41-125.41h0c0-69.26,56.15-125.41,125.41-125.41h0Z"/>
      <g>
        <text class="cls-2" transform="translate(72.33 58.86) rotate(-25.65)"><tspan x="0" y="0">c</tspan></text>
        <text class="cls-2" transform="translate(90.67 49.95) rotate(-17.49)"><tspan x="0" y="0">o</tspan></text>
        <text class="cls-2" transform="translate(110.3 43.97) rotate(-9.16)"><tspan x="0" y="0">n</tspan></text>
        <text class="cls-2" transform="translate(131.33 40.65) rotate(-1.58)"><tspan x="0" y="0">v</tspan></text>
        <text class="cls-2" transform="translate(152.39 40.21) rotate(7.04)"><tspan x="0" y="0">e</tspan></text>
        <text class="cls-2" transform="translate(171.13 42.07) rotate(14.93)"><tspan x="0" y="0">r</tspan></text>
        <text class="cls-2" transform="translate(191.4 47.4) rotate(23.21)"><tspan x="0" y="0">s</tspan></text>
        <text class="cls-2" transform="translate(210.34 55.44) rotate(31.41)"><tspan x="0" y="0">ã</tspan></text>
        <text class="cls-2" transform="translate(228.07 66.18) rotate(39.56)"><tspan x="0" y="0">o</tspan></text>
        <text class="cls-2" transform="translate(243.98 79.65) rotate(45.51)"><tspan x="0" y="0"> </tspan></text>
        <text class="cls-2" transform="translate(250.74 86.47) rotate(49.63)"><tspan x="0" y="0">(</tspan></text>
        <text class="cls-2" transform="translate(258.14 94.67) rotate(55.96)"><tspan x="0" y="0">b</tspan></text>
        <text class="cls-2" transform="translate(269.85 111.85) rotate(64.23)"><tspan x="0" y="0">r</tspan></text>
        <text class="cls-2" transform="translate(278.69 129.86) rotate(72.15)"><tspan x="0" y="0">o</tspan></text>
        <text class="cls-2" transform="translate(285.67 148.94) rotate(82.99)"><tspan x="0" y="0">w</tspan></text>
        <text class="cls-2" transform="translate(288.94 183.58) rotate(90)"><tspan x="0" y="0">n</tspan><tspan x="22.49" y="0">f</tspan><tspan x="42.01" y="0">i</tspan><tspan x="54.07" y="0">e</tspan><tspan x="73.96" y="0">l</tspan><tspan x="93.07" y="0">d</tspan><tspan x="115.16" y="0">)</tspan></text>
      </g>
      <path class="cls-1" d="m211.34,167.64c.45,2.06.9,3.75,1.18,5.48,2.54,15.39-1.71,29.04-11.11,41.12-9.45,12.15-21.72,20.68-35.84,26.65-11.3,4.78-23.04,7.87-35.2,9.43-1.97.25-3.93.54-5.91.7-.88.07-1.08.39-1.08,1.22.02,6.79,0,13.58,0,20.37,0,.39-.04.79-.06,1.18-.16.12-.33.25-.49.37-.72-.89-1.37-1.85-2.18-2.66-11.16-11.2-22.34-22.38-33.53-33.55-.55-.55-.96-.89-.17-1.67,6.23-6.12,12.42-12.28,18.59-18.46,5.68-5.68,11.31-11.39,16.97-17.09.19-.19.41-.35.86-.73,0,1.4,0,2.54,0,3.67,0,6.13,0,12.25-.01,18.38,0,.58-.15,1.15.85,1.05,11.47-1.13,22.76-3.08,33.64-7.03,13.34-4.84,25.64-11.43,36.05-21.28,7.06-6.67,12.55-14.36,16.13-23.4.44-1.11.78-2.25,1.31-3.77Z"/>
      <path class="cls-1" d="m86.36,204.89c-.45-2.06-.9-3.75-1.18-5.48-2.54-15.39,1.71-29.04,11.11-41.12,9.45-12.15,21.72-20.68,35.84-26.65,11.3-4.78,23.04-7.87,35.2-9.43,1.97-.25,3.93-.54,5.91-.7.88-.07,1.08-.39,1.08-1.22-.02-6.79,0-13.58,0-20.37,0-.39.04-.79.06-1.18.16-.12.33-.25.49-.37.72.89,1.37,1.85,2.18,2.66,11.16,11.2,22.34,22.38,33.53,33.55.55.55.96.89.17,1.67-6.23,6.12-12.42,12.28-18.59,18.46-5.68,5.68-11.31,11.39-16.97,17.09-.19.19-.41.35-.86.73,0-1.4,0-2.54,0-3.67,0-6.13,0-12.25.01-18.38,0-.58.15-1.15-.85-1.05-11.47,1.13-22.76,3.08-33.64,7.03-13.34,4.84-25.64,11.43-36.05,21.28-7.06,6.67-12.55,14.36-16.13,23.4-.44,1.11-.78,2.25-1.31,3.77Z"/>
    </g>
  </g>
</svg>