<?xml version="1.0" encoding="UTF-8"?>
<svg id="Camada_2" data-name="Camada 2" xmlns="http://www.w3.org/2000/svg" xmlns:xlink="http://www.w3.org/1999/xlink" viewBox="0 0 288.94 328.97">
  <defs>
    <style>
      .cls-1 {
        fill: #fff;
      }

      .cls-2 {
        fill: #0076e2;
        font-family: 'Oswald', sans-serif;
        font-size: 41px;
      }

      .cls-3 {
        fill: url(#Gradiente_sem_nome_8);
      }
    </style>
    <linearGradient id="Gradiente_sem_nome_8" data-name="Gradiente sem nome 8" x1="292.83" y1="270.16" x2="35.85" y2="121.79" gradientUnits="userSpaceOnUse">
      <stop offset="0" stop-color="#0076e2"/>
      <stop offset="1" stop-color="#004095"/>
    </linearGradient>
  </defs>
  <g id="Camada_1-2" data-name="Camada 1">
    <g>
      <path class="cls-3" d="m144.47,59.09h0c69.26,0,125.41,56.15,125.41,125.41v125.41h-125.41c-69.26,0-125.41-56.15-125.41-125.41h0c0-69.26,56.15-125.41,125.41-125.41h0Z"/>
      <g>
        <text class="cls-2" transform="translate(59.24 67.68) rotate(-33.77)"><tspan x="0" y="0">i</tspan></text>
        <text class="cls-2" transform="translate(68.37 61.16) rotate(-27.27)"><tspan x="0" y="0">n</tspan></text>
        <text class="cls-2" transform="translate(87.39 51.39) rotate(-19.39)"><tspan x="0" y="0">t</tspan></text>
        <text class="cls-2" transform="translate(104.63 45.37) rotate(-11.98)"><tspan x="0" y="0">e</tspan></text>
        <text class="cls-2" transform="translate(123.05 41.5) rotate(-4.19)"><tspan x="0" y="0">g</tspan></text>
        <text class="cls-2" transform="translate(143.53 39.91) rotate(3.97)"><tspan x="0" y="0">r</tspan></text>
        <text class="cls-2" transform="translate(164.4 41.27) rotate(12.27)"><tspan x="0" y="0">a</tspan></text>
        <text class="cls-2" transform="translate(185.04 45.37) rotate(20.6)"><tspan x="0" y="0">รง</tspan></text>
        <text class="cls-2" transform="translate(204.51 52.6) rotate(28.85)"><tspan x="0" y="0">รฃ</tspan></text>
        <text class="cls-2" transform="translate(222.71 62.55) rotate(37.02)"><tspan x="0" y="0">o</tspan></text>
      </g>
      <path class="cls-1" d="m135.44,214.16c-3.06-3.38-6.05-6.67-9-10-.61-.68-1.02-.35-1.56.02-3.46,2.4-7.25,4.03-11.39,4.88-5.51,1.13-10.82.36-16.03-1.54-.44-.16-.89-.3-1.41-.48-1.4,2.56-2.82,5.06-4.1,7.62-.15.31.32,1.07.67,1.47,2.66,3.03,3.84,6.5,3.06,10.49-1.11,5.67-5.99,9.66-11.69,9.7-5.71.04-10.64-3.91-11.97-9.45-1.86-7.73,5.07-16.4,14.3-14.33,1.01.23,1.46-.05,1.91-.87,1.24-2.28,2.53-4.52,3.81-6.8-1.35-1.19-2.71-2.29-3.96-3.5-13.45-13-11.38-34.7,4.31-44.94.96-.63,1.2-1.1.62-2.23-1.96-3.83-3.79-7.72-5.6-11.62-.39-.83-.77-1.07-1.7-.97-6.82.71-12.34-3.19-13.71-9.59-1.36-6.33,3.03-12.96,9.4-14.19,5.49-1.06,10.75,1.5,13.29,6.46,2.44,4.75,1.43,10.37-2.65,14.14-.8.74-.82,1.27-.37,2.16,1.89,3.81,3.72,7.65,5.57,11.48.2.42.42.82.66,1.29,3.37-1.14,6.73-1.88,10.22-1.76,10.69.36,18.94,5.06,24.7,14.04.8,1.25,1.35,1.44,2.76.83,7.88-3.45,15.82-6.77,23.76-10.06,1.01-.42,1.26-.81.96-1.88-1.36-4.82-1.68-9.68-.2-14.55.27-.9-.07-1.27-.88-1.56-1.96-.68-3.92-1.39-5.84-2.18-.77-.32-1.14-.16-1.63.5-2.83,3.82-6.64,5.66-11.37,4.78-5.05-.93-8.6-3.77-9.9-8.96-1.62-6.5,2.68-13.81,10.12-14.93,6.28-.94,12.6,3.99,13.35,10.69.04.33.19.69.11.98-.57,2.15.73,2.73,2.44,3.21,1.77.49,3.47,1.23,5.35,1.91.34-.57.71-1.22,1.11-1.84,6.05-9.74,14.59-15.29,26.27-14.97,13.64.38,24.86,10.28,27.48,23.84,3.1,16.04-7.89,31.47-24.05,33.83-3.66.54-7.28.4-10.86-.44-1.07-.25-1.4.03-1.73.95-2.73,7.8-5.49,15.6-8.28,23.39-.88,2.45-1.85,4.86-2.79,7.28-.24.61-.48,1.17.32,1.55,3.93,1.85,7.09,4.68,9.97,7.86.09.1.23.17.38.28,4.03-2.63,8.06-5.27,12.1-7.89,2.03-1.32,2.04-1.3,1.59-3.61-1.18-6.13,2.43-12.07,8.39-13.79,6.09-1.76,12.43,1.36,14.7,7.24,1.89,4.91.36,10.62-3.68,13.68-4.59,3.49-10.48,3.58-15.02.12-.99-.75-1.61-.81-2.67-.1-3.89,2.61-7.84,5.12-11.84,7.56-1,.61-1,1.12-.56,2.03,1.53,3.13,2.49,6.42,2.83,9.9,1.65,17.25-12.13,32.65-30.36,31.68-11.25-.6-19.45-6.42-24.56-16.5-.36-.72-.8-1.43-.98-2.2-.27-1.16-.83-1.36-1.92-1.08-2.88.74-5.78,1.42-8.69,2.07-.91.2-1.26.54-1.32,1.57-.33,5.38-4.44,10.11-9.45,11.07-5.48,1.05-10.93-1.58-13.32-6.44-2.79-5.65-.46-12.98,5.06-15.99,5.71-3.1,12.8-1.19,16.08,4.41.53.91.96,1.08,2,.8,2.96-.8,5.98-1.41,8.99-2.05.66-.14,1-.31.88-1.11-1.34-8.53,1.49-15.82,6.77-22.36.24-.29.47-.59.79-1.01Zm-5.7-13.34c2.7,2.95,5.68,6.18,8.63,9.44.6.66,1.05.34,1.58-.04,7.06-5.03,14.87-6.25,23.23-4.45.93.2,1.24-.03,1.53-.86,3.59-10.15,7.19-20.3,10.84-30.44.37-1.03.27-1.57-.78-2.1-4.97-2.54-8.93-6.19-11.59-11.13-.5-.92-.93-1.15-1.98-.7-8.07,3.49-16.16,6.92-24.27,10.31-1.09.45-1.23.9-.92,2,1.78,6.25,1.69,12.49-.95,18.46-1.42,3.21-3.42,6.16-5.33,9.52Zm-3.36-4.33c7.9-8.67,8.7-23.08-.77-32.77-9.97-10.21-26.18-9.73-35.65.83-9.51,10.6-6.92,24.93-.11,31.84,1.99-4.42,5.12-7.7,9.73-9.67-2.23-2.69-3.62-5.61-3.44-9.12.18-3.53,1.71-6.37,4.35-8.61,4.37-3.71,10.3-3.88,14.64-.5,2.32,1.81,3.89,4.13,4.59,6.98,1.05,4.3-.36,7.97-3.17,11.27,4.88,1.78,7.8,5.31,9.83,9.75Zm70.27-43.74c4.84,1.75,7.74,5.37,9.89,9.77,7.11-7.95,9.16-23.14-1.57-33.36-9.67-9.22-24.71-8.99-34.13.51-10.9,10.99-7.24,26.28-.97,32.76,1.94-4.53,5.09-7.84,9.65-9.7-4.66-7.39-4.31-13.52.95-17.79,4.84-3.92,11.73-3.5,16.32.89,3.52,3.38,5.59,10.84-.14,16.92Zm-21.71,97.08c8.92-10.86,7.46-25.95-2.91-34.64-9.78-8.21-25.57-7.14-34.08,3.33-9.19,11.3-5.75,24.96.35,31.29,1.95-4.5,4.93-7.93,9.74-9.69-2.25-2.66-3.69-5.56-3.54-9.06.15-3.51,1.63-6.38,4.21-8.69,4.02-3.6,10.45-3.89,14.87-.71,2.3,1.66,3.89,3.85,4.64,6.61,1.22,4.49-.07,8.36-3.2,11.8,4.79,1.92,7.79,5.32,9.91,9.77Zm-67.31-44.88c5.34-.1,9.69-1.49,13.74-3.96.93-.57,1.14-1.17.74-2.22-1.78-4.7-5.05-7.65-10.03-8.33-2.37-.32-4.84-.32-7.23-.06-5.17.55-8.88,3.21-10.76,8.2-.38,1.01-.34,1.78.69,2.42,4.13,2.53,8.61,3.82,12.85,3.96Zm48.27,53.28c5.54-.02,9.99-1.41,14.09-3.98.66-.41,1.05-.83.76-1.72-1.43-4.42-4.21-7.59-8.83-8.48-2.65-.51-5.46-.32-8.19-.29-5.17.05-9.8,3.72-11.21,8.7-.22.8-.08,1.32.65,1.78,4.11,2.57,8.58,3.88,12.72,3.99Zm33-87.35c4.18-.12,8.59-1.34,12.6-3.92.8-.51,1.03-1.05.72-1.99-1.42-4.39-4.38-7.26-8.83-8.15-2.69-.54-5.56-.47-8.33-.35-5.02.22-9.31,3.64-10.96,8.35-.36,1.03-.15,1.62.77,2.22,4.11,2.66,8.65,3.72,14.02,3.84Zm16.15,38.81c4.23.02,7.47-3.1,7.49-7.21.02-4.09-3.15-7.36-7.19-7.41-4.12-.04-7.39,3.19-7.4,7.34-.01,4.07,3.1,7.26,7.1,7.28Zm-62.93-72.82c4.29.01,7.24-2.97,7.26-7.36.02-3.96-3.2-7.11-7.28-7.12-4.17-.01-7.24,2.98-7.27,7.08-.03,4.19,3.13,7.39,7.3,7.4Zm-36.53,101.99c-4.1,0-7.18,3.08-7.19,7.16,0,4.1,3.2,7.35,7.24,7.33,4.27-.02,7.34-3,7.35-7.14,0-4.1-3.27-7.35-7.4-7.34Zm-21.8-116.48c-4.04-.05-7.19,3.08-7.22,7.17-.03,4.02,3.31,7.38,7.39,7.45,3.96.06,7.06-3.04,7.1-7.11.04-4.16-3.15-7.46-7.27-7.51Zm104.34,14.52c-3.9.05-7.21,3.42-7.2,7.32.01,3.99,3.38,7.36,7.34,7.34,3.89-.02,7.32-3.39,7.33-7.22,0-3.91-3.59-7.49-7.47-7.44Zm-31.39,101.87c4.63-.06,7.05-3.69,7.06-7.29.02-4.01-3.27-7.27-7.19-7.27-4.18,0-7.35,3.29-7.29,7.57.05,3.92,3.38,7.06,7.41,6.99Zm-48.63-67.8c-4.05,0-7.33,3.26-7.31,7.27.02,4.06,3.13,7.18,7.2,7.21,4.21.04,7.32-2.99,7.35-7.15.03-4.04-3.22-7.33-7.24-7.33Zm-17.04,53.41c.01-4.03-3.26-7.35-7.25-7.36-3.95-.01-7.21,3.25-7.23,7.23-.02,3.98,3.19,7.22,7.2,7.25,4.05.03,7.26-3.11,7.28-7.11Z"/>
    </g>
  </g>
</svg>