<?xml version="1.0" encoding="UTF-8"?>
<svg id="Camada_2" data-name="Camada 2" xmlns="http://www.w3.org/2000/svg" xmlns:xlink="http://www.w3.org/1999/xlink" viewBox="0 0 296.5 328.99">
  <defs>
    <style>
      .cls-1 {
        fill: #fff;
      }

      .cls-2 {
        fill: #0076e2;
        font-family: GOBOLD;
        font-size: 41px;
      }

      .cls-3 {
        fill: url(#Gradiente_sem_nome_8);
      }
    </style>
    <linearGradient id="Gradiente_sem_nome_8" data-name="Gradiente sem nome 8" x1="292.83" y1="270.17" x2="35.85" y2="121.8" gradientUnits="userSpaceOnUse">
      <stop offset="0" stop-color="#0076e2"/>
      <stop offset="1" stop-color="#004095"/>
    </linearGradient>
  </defs>
  <g id="Camada_1-2" data-name="Camada 1">
    <g>
      <path class="cls-3" d="m144.47,59.11h0c69.26,0,125.41,56.15,125.41,125.41v125.41h-125.41c-69.26,0-125.41-56.15-125.41-125.41h0c0-69.26,56.15-125.41,125.41-125.41h0Z"/>
      <g>
        <text class="cls-2" transform="translate(41.31 82.22) rotate(-39.19)"><tspan x="0" y="0">m</tspan></text>
        <text class="cls-2" transform="translate(64.39 63.84) rotate(-29.68)"><tspan x="0" y="0">e</tspan></text>
        <text class="cls-2" transform="translate(80.77 54.46) rotate(-22.33)"><tspan x="0" y="0">l</tspan></text>
        <text class="cls-2" transform="translate(97.4 47.42) rotate(-14.46)"><tspan x="0" y="0">h</tspan></text>
        <text class="cls-2" transform="translate(118.1 42.34) rotate(-6.17)"><tspan x="0" y="0">o</tspan></text>
        <text class="cls-2" transform="translate(138.5 40.04) rotate(2)"><tspan x="0" y="0">r</tspan></text>
        <text class="cls-2" transform="translate(159.64 41.01) rotate(8.38)"><tspan x="0" y="0">i</tspan></text>
        <text class="cls-2" transform="translate(170.81 42.01) rotate(14.82)"><tspan x="0" y="0">a</tspan></text>
        <text class="cls-2" transform="translate(191.19 47.34) rotate(23.12)"><tspan x="0" y="0">s</tspan></text>
        <text class="cls-2" transform="translate(210.23 55.75) rotate(29.12)"><tspan x="0" y="0"> </tspan></text>
        <text class="cls-2" transform="translate(218.59 60.01) rotate(35.11)"><tspan x="0" y="0">s</tspan></text>
        <text class="cls-2" transform="translate(235.5 71.78) rotate(43.31)"><tspan x="0" y="0">a</tspan></text>
        <text class="cls-2" transform="translate(250.85 86.21) rotate(51.38)"><tspan x="0" y="0">p</tspan></text>
      </g>
      <g>
        <path class="cls-1" d="m131.37,217.07c-6.13,0-11.11,4.98-11.11,11.11s4.98,11.11,11.11,11.11,11.11-4.98,11.11-11.11-4.98-11.11-11.11-11.11h0Zm0,14.81c-2.04,0-3.7-1.66-3.7-3.7s1.66-3.7,3.7-3.7,3.7,1.66,3.7,3.7-1.66,3.7-3.7,3.7h0Z"/>
        <path class="cls-1" d="m142.48,204.86v-27.9c8.96-4.26,14.81-13.33,14.81-23.33,0-11.1-7.06-20.53-17.27-24.16l-4.94-1.76v22.22h-7.41v-22.22l-4.94,1.76c-10.21,3.63-17.27,13.05-17.27,24.16,0,10,5.85,19.07,14.81,23.33v27.9c-8.96,4.26-14.81,13.33-14.81,23.33,0,14.29,11.63,25.92,25.92,25.92s25.92-11.63,25.92-25.92c0-10-5.85-19.07-14.81-23.33h0Zm-11.11,41.84c-10.21,0-18.52-8.31-18.52-18.52,0-14.87,14.39-17.95,14.81-18.24v-38.07c-.09-.07-14.81-3.73-14.81-18.24,0-5.89,2.79-11.2,7.41-14.58v18.28h22.22v-18.28c4.62,3.38,7.41,8.69,7.41,14.58,0,14.87-14.39,17.95-14.81,18.24v38.07c.09.06,14.81,3.73,14.81,18.24,0,10.21-8.31,18.52-18.52,18.52h0Z"/>
        <path class="cls-1" d="m194.32,194.86h-14.81v-33.11l7.65-19.11-4.98-14.93h-12.74l-4.98,14.93,7.65,19.11v33.11h-14.81v7.41h7.41v51.84h22.22v-51.84h7.41v-7.41Zm-19.55-59.74h2.07l2.43,7.29-3.46,8.66-3.46-8.66,2.43-7.29Zm-2.67,111.59v-29.63h7.41v29.63h-7.41Zm7.41-37.03h-7.41v-7.41h7.41v7.41Z"/>
      </g>
    </g>
  </g>
</svg>