<?xml version="1.0" encoding="UTF-8"?>
<svg id="Camada_2" data-name="Camada 2" xmlns="http://www.w3.org/2000/svg" xmlns:xlink="http://www.w3.org/1999/xlink" viewBox="0 0 373.76 333.31">
  <defs>
    <style>
      .cls-1 {
        fill: #fff;
      }

      .cls-2 {
        fill: #0076e2;
        font-family: GOBOLD;
        font-size: 41px;
      }

      .cls-3 {
        fill: url(#Gradiente_sem_nome_8);
      }
    </style>
    <linearGradient id="Gradiente_sem_nome_8" data-name="Gradiente sem nome 8" x1="333.01" y1="274.49" x2="76.02" y2="126.12" gradientUnits="userSpaceOnUse">
      <stop offset="0" stop-color="#0076e2"/>
      <stop offset="1" stop-color="#004095"/>
    </linearGradient>
  </defs>
  <g id="Camada_1-2" data-name="Camada 1">
    <path class="cls-3" d="m184.65,63.42h0c69.26,0,125.41,56.15,125.41,125.41v125.41h-125.41c-69.26,0-125.41-56.15-125.41-125.41h0c0-69.26,56.15-125.41,125.41-125.41h0Z"/>
    <text class="cls-2" transform="translate(39.86 183.17) rotate(-83.43)"><tspan x="0" y="0">a</tspan></text>
    <text class="cls-2" transform="translate(42.13 163.08) rotate(-75.98)"><tspan x="0" y="0">t</tspan></text>
    <text class="cls-2" transform="translate(46.38 145.37) rotate(-68.16)"><tspan x="0" y="0">u</tspan></text>
    <text class="cls-2" transform="translate(54.11 125.86) rotate(-59.81)"><tspan x="0" y="0">a</tspan></text>
    <text class="cls-2" transform="translate(64.75 107.64) rotate(-52.07)"><tspan x="0" y="0">l</tspan></text>
    <text class="cls-2" transform="translate(76.1 93.3) rotate(-46.25)"><tspan x="0" y="0">i</tspan></text>
    <text class="cls-2" transform="translate(83.76 85) rotate(-40.52)"><tspan x="0" y="0">z</tspan></text>
    <text class="cls-2" transform="translate(97.01 73.43) rotate(-32.88)"><tspan x="0" y="0">a</tspan></text>
    <text class="cls-2" transform="translate(114.64 61.95) rotate(-24.59)"><tspan x="0" y="0">ç</tspan></text>
    <text class="cls-2" transform="translate(133.49 53.23) rotate(-16.32)"><tspan x="0" y="0">ã</tspan></text>
    <text class="cls-2" transform="translate(153.44 47.64) rotate(-8.12)"><tspan x="0" y="0">o</tspan></text>
    <text class="cls-2" transform="translate(174.08 44.95) rotate(-2.17)"><tspan x="0" y="0"> </tspan></text>
    <text class="cls-2" transform="translate(183.64 44.54) rotate(1.95)"><tspan x="0" y="0">(</tspan></text>
    <text class="cls-2" transform="translate(194.67 44.58) rotate(8.31)"><tspan x="0" y="0">u</tspan></text>
    <text class="cls-2" transform="translate(215.46 47.26) rotate(16.41)"><tspan x="0" y="0">p</tspan></text>
    <text class="cls-2" transform="translate(234.61 52.8) rotate(24.49)"><tspan x="0" y="0">g</tspan></text>
    <text class="cls-2" transform="translate(253.37 61.25) rotate(32.73)"><tspan x="0" y="0">r</tspan></text>
    <text class="cls-2" transform="translate(271.03 72.5) rotate(41.01)"><tspan x="0" y="0">a</tspan></text>
    <text class="cls-2" transform="translate(286.97 86.25) rotate(49.27)"><tspan x="0" y="0">d</tspan></text>
    <text class="cls-2" transform="translate(300.68 102.17) rotate(57.13)"><tspan x="0" y="0">e</tspan></text>
    <text class="cls-2" transform="translate(310.89 118.35) rotate(62.79)"><tspan x="0" y="0"> </tspan></text>
    <text class="cls-2" transform="translate(315.48 126.48) rotate(68.88)"><tspan x="0" y="0">d</tspan></text>
    <text class="cls-2" transform="translate(323.05 146.08) rotate(76.82)"><tspan x="0" y="0">e</tspan></text>
    <text class="cls-2" transform="translate(327.21 164.74) rotate(82.5)"><tspan x="0" y="0"> </tspan></text>
    <text class="cls-2" transform="translate(328.78 173.97) rotate(88.53)"><tspan x="0" y="0">v</tspan></text>
    <text class="cls-2" transform="translate(329.12 195.92) rotate(90)"><tspan x="0" y="0">e</tspan><tspan x="19.92" y="0">r</tspan><tspan x="41.99" y="0">s</tspan><tspan x="63.65" y="0">ã</tspan><tspan x="85.49" y="0">o</tspan><tspan x="107.18" y="0">)</tspan></text>
    <g>
      <path class="cls-1" d="m269.64,237.44h-3.25v-102.52c0-5.38-4.38-9.76-9.76-9.76h-11.72v-9.76c0-1.8-1.46-3.25-3.25-3.25h-104.14c-1.8,0-3.25,1.46-3.25,3.25v9.76h-11.72c-5.38,0-9.76,4.38-9.76,9.76v102.52h-3.25c-1.8,0-3.25,1.46-3.25,3.25v11.39c0,5.38,4.38,9.76,9.76,9.76h147.1c5.38,0,9.76-4.38,9.76-9.76v-11.39c0-1.8-1.46-3.25-3.25-3.25h0Zm-128.88-118.79h97.63v71.6h-35.8c-.86,0-1.69.34-2.3.95l-10.72,10.72-10.72-10.72c-.61-.61-1.44-.95-2.3-.95h-35.8v-71.6Zm-18.23,13.02h11.72v61.83c0,1.8,1.46,3.25,3.25,3.25h37.71l12.06,12.07c.64.63,1.47.95,2.3.95s1.67-.32,2.3-.95l12.06-12.07h37.71c1.8,0,3.25-1.46,3.25-3.25v-61.83h11.72c1.8,0,3.25,1.46,3.25,3.25v87.87H119.29v-87.87c0-1.79,1.46-3.25,3.25-3.25h0Zm-3.25,97.63h140.59v8.14h-50.77c-1.09,0-2.11.54-2.71,1.45l-2.29,3.43h-29.06l-2.29-3.43c-.6-.91-1.62-1.45-2.71-1.45h-50.77v-8.14Zm147.1,22.78c0,1.79-1.46,3.25-3.25,3.25H116.03c-1.8,0-3.25-1.46-3.25-3.25v-8.14h55.54l2.29,3.43c.6.91,1.62,1.45,2.71,1.45h32.54c1.09,0,2.1-.54,2.71-1.45l2.29-3.43h55.54v8.14Z"/>
      <path class="cls-1" d="m178.19,175.6c0,.86.34,1.69.95,2.3l3.25,3.25c.61.61,1.44.95,2.3.95h9.76c.86,0,1.69-.34,2.3-.95l3.25-3.25c.61-.61.95-1.44.95-2.3v-9.76c0-1.96,0-2.26,4.15-7.7,2.61-3.42,3.99-7.51,3.99-11.83,0-10.77-8.76-19.53-19.53-19.53s-19.53,8.76-19.53,19.53c0,4.32,1.38,8.41,3.99,11.83,4.15,5.44,4.15,5.74,4.15,7.7v9.76Zm14.92,0h-7.07l-1.35-1.35v-5.16h9.76v5.16l-1.35,1.35Zm-3.53-42.31c7.18,0,13.02,5.84,13.02,13.02,0,2.88-.92,5.6-2.66,7.88-3.07,4.03-4.54,6.04-5.13,8.39h-10.45c-.59-2.35-2.06-4.36-5.13-8.39-1.74-2.28-2.66-5.01-2.66-7.88,0-7.18,5.84-13.02,13.02-13.02h0Z"/>
      <path class="cls-1" d="m163.55,146.31c0-1.8-1.46-3.25-3.25-3.25h-4.88c-1.8,0-3.25,1.46-3.25,3.25s1.46,3.25,3.25,3.25h4.88c1.8,0,3.25-1.46,3.25-3.25h0Z"/>
      <path class="cls-1" d="m215.62,146.31c0,1.8,1.46,3.25,3.25,3.25h4.88c1.8,0,3.25-1.46,3.25-3.25s-1.46-3.25-3.25-3.25h-4.88c-1.8,0-3.25,1.46-3.25,3.25h0Z"/>
      <path class="cls-1" d="m165.84,128.85l-4.23-2.44c-1.56-.9-3.55-.36-4.45,1.19-.9,1.56-.36,3.55,1.19,4.45l4.23,2.44c.51.3,1.07.44,1.62.44,1.13,0,2.22-.58,2.82-1.63.9-1.56.37-3.55-1.19-4.45h0Z"/>
      <path class="cls-1" d="m213.32,163.78l4.23,2.44c.51.3,1.07.44,1.62.44,1.13,0,2.22-.58,2.82-1.63.9-1.56.36-3.55-1.19-4.44l-4.23-2.44c-1.56-.9-3.55-.37-4.45,1.19-.9,1.56-.37,3.55,1.19,4.45h0Z"/>
      <path class="cls-1" d="m162.59,158.14l-4.23,2.44c-1.56.9-2.09,2.89-1.19,4.45.6,1.04,1.7,1.63,2.82,1.63.55,0,1.11-.14,1.62-.44l4.23-2.44c1.56-.9,2.09-2.89,1.19-4.45-.9-1.56-2.89-2.09-4.45-1.19h0Z"/>
      <path class="cls-1" d="m214.95,134.92c.55,0,1.11-.14,1.62-.44l4.23-2.44c1.56-.9,2.09-2.89,1.19-4.45-.9-1.56-2.89-2.09-4.45-1.19l-4.23,2.44c-1.56.9-2.09,2.89-1.19,4.45.6,1.04,1.7,1.63,2.82,1.63h0Z"/>
    </g>
  </g>
</svg>