<?xml version="1.0" encoding="UTF-8"?>
<svg id="Camada_2" data-name="Camada 2" xmlns="http://www.w3.org/2000/svg" viewBox="0 0 146.56 146.97">
  <defs>
    <style>
      .cls-1 {
        fill: #0076e2;
      }
    </style>
  </defs>
  <g id="Camada_1-2" data-name="Camada 1">
    <g>
      <path class="cls-1" d="m55,18.28v18.36c0,10.13-8.24,18.36-18.36,18.36s-18.36-8.24-18.36-18.36,8.24-18.36,18.36-18.36h18.36M73.28,0h-36.64C16.4,0,0,16.4,0,36.64h0c0,20.24,16.4,36.64,36.64,36.64h0c20.24,0,36.64-16.4,36.64-36.64V0h0Z"/>
      <path class="cls-1" d="m109.92,18.68c10.13,0,18.36,8.24,18.36,18.36v18.36h-18.36c-10.13,0-18.36-8.24-18.36-18.36s8.24-18.36,18.36-18.36m0-18.28h0c-20.24,0-36.64,16.4-36.64,36.64h0c0,20.24,16.4,36.64,36.64,36.64h36.64v-36.64C146.56,16.81,130.16.41,109.92.41h0Z"/>
      <path class="cls-1" d="m109.92,91.56c10.13,0,18.36,8.24,18.36,18.36s-8.24,18.36-18.36,18.36h-18.36v-18.36c0-10.13,8.24-18.36,18.36-18.36m0-18.28h0c-20.24,0-36.64,16.4-36.64,36.64v36.64h36.64c20.24,0,36.64-16.4,36.64-36.64h0c0-20.24-16.4-36.64-36.64-36.64h0Z"/>
      <path class="cls-1" d="m36.64,91.96c10.13,0,18.36,8.24,18.36,18.36s-8.24,18.36-18.36,18.36-18.36-8.24-18.36-18.36v-18.36h18.36m0-18.28H0v36.64c0,20.24,16.4,36.64,36.64,36.64h0c20.24,0,36.64-16.4,36.64-36.64h0c0-20.24-16.4-36.64-36.64-36.64h0Z"/>
    </g>
  </g>
</svg>