<?xml version="1.0" encoding="UTF-8"?>
<svg id="Camada_2" data-name="Camada 2" xmlns="http://www.w3.org/2000/svg" viewBox="0 0 461.08 146.97">
  <defs>
    <style>
      .cls-1 {
        fill: #0076e2;
      }

      .cls-2 {
        fill: #101e2b;
      }
    </style>
  </defs>
  <g id="Camada_1-2" data-name="Camada 1">
    <g>
      <g>
        <g>
          <path class="cls-2" d="m233.59,56.04c2.49,1.52,4.44,3.31,5.85,5.37,1.41,2.07,2.44,4.26,3.1,6.58.65,2.32.98,4.87.98,7.65,0,3.75-.61,7.19-1.83,10.31-1.22,3.12-3.01,5.84-5.37,8.16-2.36,2.32-5.41,4.13-9.14,5.44-3.73,1.31-7.98,1.96-12.74,1.96h-42.3V9.5h36.11c5.19,0,9.73.53,13.63,1.58,3.9,1.05,7.08,2.56,9.55,4.52,2.47,1.96,4.3,4.31,5.5,7.05,1.2,2.74,1.8,5.86,1.8,9.36,0,2.02-.22,3.93-.66,5.72-.44,1.79-1.17,3.6-2.18,5.44-1.01,1.83-2.48,3.52-4.39,5.06-1.92,1.54-4.21,2.84-6.86,3.89v.25c3.5.93,6.49,2.15,8.98,3.67Zm-37.62-10.24h8.03c3.04,0,5.46-.65,7.27-1.96,1.81-1.31,2.72-3.1,2.72-5.37,0-1.48-.36-2.76-1.07-3.86-.72-1.1-1.85-1.98-3.41-2.66-1.56-.67-3.46-1.01-5.69-1.01h-7.84v14.86Zm19.03,32.44c2.02-1.43,3.04-3.5,3.04-6.2,0-2.49-.94-4.48-2.81-5.98-1.88-1.5-4.71-2.24-8.5-2.24h-10.75v16.57h10.88c3.41,0,6.13-.72,8.16-2.15Z"/>
          <path class="cls-2" d="m253.22,9.5h7.14c8.14,0,14.74,6.6,14.74,14.74v55.38h14.67c12.08,0,21.88,9.8,21.88,21.88h0s-58.43,0-58.43,0V9.5Z"/>
          <path class="cls-2" d="m333.07,100.21c-4.72-1.75-8.78-4.29-12.17-7.62-3.39-3.33-6.02-7.52-7.87-12.58s-2.78-10.77-2.78-17.14V9.5h.13c13.69,0,24.79,11.1,24.79,24.79v27.19c0,3.37.47,6.42,1.42,9.14.95,2.72,2.49,4.95,4.62,6.7,2.13,1.75,4.69,2.62,7.68,2.62,2.7,0,5.11-.71,7.24-2.12,2.13-1.41,3.82-3.53,5.06-6.35,1.24-2.82,1.87-6.15,1.87-9.99V9.5s0,0,0,0c13.69,0,24.79,11.1,24.79,24.79v28.58c0,8.05-1.48,15.06-4.43,21.02-2.95,5.96-7.38,10.61-13.28,13.94-5.9,3.33-12.98,5-21.25,5-5.82,0-11.09-.87-15.81-2.62Z"/>
          <path class="cls-2" d="m397.22,9.5h61.15v8.47c0,7.44-6.03,13.47-13.47,13.47h-23.84v13.85h29.21v8.41c0,7.16-5.8,12.96-12.96,12.96h-16.25s0,12.96,0,12.96h26.56c7.44,0,13.47,6.03,13.47,13.47v8.41h-63.86V9.5Z"/>
        </g>
        <g>
          <path class="cls-2" d="m213.59,139l1.62,1.44-.17.17c-2.46,2.46-5.43,3.69-8.91,3.69s-6.48-1.23-8.94-3.69c-2.46-2.46-3.69-5.44-3.69-8.94s1.23-6.45,3.69-8.91,5.44-3.69,8.94-3.69,6.45,1.23,8.91,3.69c.1.1.18.18.26.26l-1.56,1.5c-.08-.08-.15-.15-.23-.23-2.04-2.04-4.5-3.06-7.38-3.06s-5.37,1.02-7.41,3.06c-2.04,2.04-3.06,4.5-3.06,7.38s1.02,5.37,3.06,7.41c2.04,2.04,4.51,3.06,7.41,3.06s5.35-1.02,7.38-3.06c.02-.02.05-.05.09-.09Z"/>
          <path class="cls-2" d="m246.41,131.67c0,3.5-1.23,6.48-3.69,8.94s-5.43,3.69-8.91,3.69-6.48-1.23-8.94-3.69c-2.46-2.46-3.69-5.44-3.69-8.94s1.23-6.45,3.69-8.91,5.44-3.69,8.94-3.69,6.45,1.23,8.91,3.69c2.46,2.46,3.69,5.43,3.69,8.91Zm-12.6-10.44c-2.9,0-5.37,1.02-7.41,3.06-2.04,2.04-3.06,4.5-3.06,7.38s1.02,5.37,3.06,7.41c2.04,2.04,4.51,3.06,7.41,3.06s5.35-1.02,7.38-3.06c2.04-2.04,3.06-4.51,3.06-7.41s-1.02-5.35-3.06-7.38c-2.04-2.04-4.5-3.06-7.38-3.06Z"/>
          <path class="cls-2" d="m253.91,119.79h1.62l14.97,19.53v-19.53h2.16v23.79h-1.64l-14.94-19.5v19.5h-2.16v-23.79Z"/>
          <path class="cls-2" d="m294.98,123.83c-.63-.71-1.51-1.32-2.62-1.83s-2.3-.76-3.55-.76c-1.71,0-3.08.42-4.1,1.27-1.02.85-1.53,1.84-1.53,2.97,0,1.04.37,1.94,1.11,2.7.74.76,1.67,1.32,2.78,1.69l5.94,1.64c1.42.42,2.59,1.16,3.49,2.22.9,1.06,1.36,2.38,1.36,3.98,0,1.79-.76,3.34-2.28,4.64-1.52,1.31-3.6,1.96-6.23,1.96-2.13,0-4-.48-5.61-1.43-1.61-.95-2.85-2.17-3.73-3.65l1.87-1.18c.81,1.31,1.9,2.32,3.27,3.03,1.37.71,2.75,1.07,4.14,1.07,2.11,0,3.71-.46,4.77-1.38,1.07-.92,1.6-1.97,1.6-3.14,0-.98-.31-1.84-.94-2.58-.62-.74-1.5-1.25-2.61-1.54l-5.57-1.59c-1.61-.52-2.94-1.34-3.98-2.45-1.04-1.11-1.56-2.45-1.56-4.01,0-1.73.71-3.22,2.13-4.48,1.42-1.26,3.31-1.89,5.65-1.89,1.79,0,3.37.34,4.76,1.02,1.38.68,2.51,1.51,3.37,2.5l-1.96,1.24Z"/>
          <path class="cls-2" d="m304.96,134.93v-15.14h2.16v15.14c0,2,.7,3.7,2.11,5.11,1.4,1.4,3.1,2.11,5.1,2.11s3.7-.7,5.11-2.11c1.4-1.4,2.11-3.11,2.11-5.11v-15.14h2.16v15.14c0,2.6-.91,4.81-2.74,6.63-1.83,1.83-4.04,2.74-6.63,2.74s-4.81-.91-6.63-2.74c-1.83-1.83-2.74-4.04-2.74-6.63Z"/>
          <path class="cls-2" d="m331.93,119.79h2.16v21.63h11.54v2.16h-13.7v-23.79Z"/>
          <path class="cls-2" d="m354.94,121.95h-6.86v-2.16h15.86v2.16h-6.84v21.63h-2.16v-21.63Z"/>
          <path class="cls-2" d="m372.16,119.79v23.79h-2.16v-23.79h2.16Z"/>
          <path class="cls-2" d="m381.1,119.79h1.62l14.97,19.53v-19.53h2.16v23.79h-1.64l-14.94-19.5v19.5h-2.16v-23.79Z"/>
          <path class="cls-2" d="m429.06,140.44c-2.38,2.58-5.41,3.86-9.08,3.86s-6.48-1.23-8.94-3.69c-2.46-2.46-3.69-5.44-3.69-8.94s1.23-6.45,3.69-8.91,5.44-3.69,8.94-3.69,6.45,1.23,8.91,3.69c.1.1.18.18.26.26l-1.56,1.5c-.08-.08-.15-.15-.23-.23-2.04-2.04-4.5-3.06-7.38-3.06s-5.37,1.02-7.41,3.06c-2.04,2.04-3.06,4.5-3.06,7.38s1.02,5.37,3.06,7.41c2.04,2.04,4.51,3.06,7.41,3.06,2.67,0,4.98-.87,6.92-2.62v-6.75h-7.33v-2.16h9.49v9.84Z"/>
        </g>
      </g>
      <g>
        <path class="cls-1" d="m55,18.28v18.36c0,10.13-8.24,18.36-18.36,18.36s-18.36-8.24-18.36-18.36,8.24-18.36,18.36-18.36h18.36M73.28,0h-36.64C16.4,0,0,16.4,0,36.64h0c0,20.24,16.4,36.64,36.64,36.64h0c20.24,0,36.64-16.4,36.64-36.64V0h0Z"/>
        <path class="cls-1" d="m109.92,18.68c10.13,0,18.36,8.24,18.36,18.36v18.36h-18.36c-10.13,0-18.36-8.24-18.36-18.36s8.24-18.36,18.36-18.36m0-18.28h0c-20.24,0-36.64,16.4-36.64,36.64h0c0,20.24,16.4,36.64,36.64,36.64h36.64v-36.64C146.56,16.81,130.16.41,109.92.41h0Z"/>
        <path class="cls-1" d="m109.92,91.56c10.13,0,18.36,8.24,18.36,18.36s-8.24,18.36-18.36,18.36h-18.36v-18.36c0-10.13,8.24-18.36,18.36-18.36m0-18.28h0c-20.24,0-36.64,16.4-36.64,36.64v36.64h36.64c20.24,0,36.64-16.4,36.64-36.64h0c0-20.24-16.4-36.64-36.64-36.64h0Z"/>
        <path class="cls-1" d="m36.64,91.96c10.13,0,18.36,8.24,18.36,18.36s-8.24,18.36-18.36,18.36-18.36-8.24-18.36-18.36v-18.36h18.36m0-18.28H0v36.64c0,20.24,16.4,36.64,36.64,36.64h0c20.24,0,36.64-16.4,36.64-36.64h0c0-20.24-16.4-36.64-36.64-36.64h0Z"/>
      </g>
    </g>
  </g>
</svg>